0
SECTION
2
HEADER
9
$ACADVER
1
AC1015
9
$INSUNITS
70
4
0
ENDSEC
0
SECTION
2
TABLES
0
TABLE
2
LAYER
70
12
0
LAYER
2
WALLS
70
0
62
7
6
CONTINUOUS
0
LAYER
2
DOORS
70
0
62
2
6
CONTINUOUS
0
LAYER
2
WINDOWS
70
0
62
4
6
CONTINUOUS
0
LAYER
2
DIMENSIONS
70
0
62
3
6
CONTINUOUS
0
LAYER
2
TEXT
70
0
62
6
6
CONTINUOUS
0
LAYER
2
GRID
70
0
62
8
6
CONTINUOUS
0
LAYER
2
FURNITURE
70
0
62
5
6
CONTINUOUS
0
LAYER
2
HATCH_SIM
70
0
62
9
6
CONTINUOUS
0
LAYER
2
STAIRS
70
0
62
1
6
CONTINUOUS
0
LAYER
2
CORE
70
0
62
30
6
CONTINUOUS
0
LAYER
2
ANNOTATION
70
0
62
40
6
CONTINUOUS
0
LAYER
2
0
70
0
62
7
6
CONTINUOUS
0
ENDTAB
0
ENDSEC
0
SECTION
2
ENTITIES
0
LINE
8
WALLS
10
0.000
20
0.000
30
0.0
11
10000.000
21
0.000
31
0.0
0
LINE
8
WALLS
10
10000.000
20
0.000
30
0.0
11
10000.000
21
6500.000
31
0.0
0
LINE
8
WALLS
10
10000.000
20
6500.000
30
0.0
11
0.000
21
6500.000
31
0.0
0
LINE
8
WALLS
10
0.000
20
6500.000
30
0.0
11
0.000
21
0.000
31
0.0
0
LINE
8
WALLS
10
200.000
20
200.000
30
0.0
11
9800.000
21
200.000
31
0.0
0
LINE
8
WALLS
10
9800.000
20
200.000
30
0.0
11
9800.000
21
6300.000
31
0.0
0
LINE
8
WALLS
10
9800.000
20
6300.000
30
0.0
11
200.000
21
6300.000
31
0.0
0
LINE
8
WALLS
10
200.000
20
6300.000
30
0.0
11
200.000
21
200.000
31
0.0
0
LINE
8
WALLS
10
4000.000
20
200.000
30
0.0
11
4000.000
21
6300.000
31
0.0
0
LINE
8
WALLS
10
4000.000
20
3300.000
30
0.0
11
9800.000
21
3300.000
31
0.0
0
LINE
8
WALLS
10
7000.000
20
3300.000
30
0.0
11
7000.000
21
6300.000
31
0.0
0
LINE
8
WALLS
10
200.000
20
2500.000
30
0.0
11
4000.000
21
2500.000
31
0.0
0
LINE
8
DOORS
10
4000.000
20
1200.000
30
0.0
11
4800.000
21
1200.000
31
0.0
0
ARC
8
DOORS
10
4000.000
20
1200.000
30
0.0
40
800.000
50
0.000
51
90.000
0
LINE
8
DOORS
10
4000.000
20
4300.000
30
0.0
11
4800.000
21
4300.000
31
0.0
0
ARC
8
DOORS
10
4000.000
20
4300.000
30
0.0
40
800.000
50
0.000
51
90.000
0
LINE
8
DOORS
10
7000.000
20
4300.000
30
0.0
11
7800.000
21
4300.000
31
0.0
0
ARC
8
DOORS
10
7000.000
20
4300.000
30
0.0
40
800.000
50
0.000
51
90.000
0
LINE
8
DOORS
10
5200.000
20
3300.000
30
0.0
11
5200.000
21
4100.000
31
0.0
0
ARC
8
DOORS
10
5200.000
20
3300.000
30
0.0
40
800.000
50
90.000
51
180.000
0
LINE
8
DOORS
10
8500.000
20
3300.000
30
0.0
11
8500.000
21
4100.000
31
0.0
0
ARC
8
DOORS
10
8500.000
20
3300.000
30
0.0
40
800.000
50
90.000
51
180.000
0
LINE
8
DOORS
10
9800.000
20
1600.000
30
0.0
11
9000.000
21
1600.000
31
0.0
0
ARC
8
DOORS
10
9800.000
20
1600.000
30
0.0
40
800.000
50
180.000
51
270.000
0
LINE
8
WINDOWS
10
1000.000
20
6500.000
30
0.0
11
3000.000
21
6500.000
31
0.0
0
LINE
8
WINDOWS
10
1000.000
20
6580.000
30
0.0
11
3000.000
21
6580.000
31
0.0
0
LINE
8
WINDOWS
10
4800.000
20
6500.000
30
0.0
11
6500.000
21
6500.000
31
0.0
0
LINE
8
WINDOWS
10
4800.000
20
6580.000
30
0.0
11
6500.000
21
6580.000
31
0.0
0
LINE
8
WINDOWS
10
7600.000
20
6500.000
30
0.0
11
9400.000
21
6500.000
31
0.0
0
LINE
8
WINDOWS
10
7600.000
20
6580.000
30
0.0
11
9400.000
21
6580.000
31
0.0
0
LINE
8
WINDOWS
10
0.000
20
3500.000
30
0.0
11
0.000
21
5200.000
31
0.0
0
LINE
8
WINDOWS
10
-80.000
20
3500.000
30
0.0
11
-80.000
21
5200.000
31
0.0
0
LINE
8
WINDOWS
10
10000.000
20
800.000
30
0.0
11
10000.000
21
2400.000
31
0.0
0
LINE
8
WINDOWS
10
9920.000
20
800.000
30
0.0
11
9920.000
21
2400.000
31
0.0
0
LINE
8
WINDOWS
10
500.000
20
0.000
30
0.0
11
2200.000
21
0.000
31
0.0
0
LINE
8
WINDOWS
10
500.000
20
80.000
30
0.0
11
2200.000
21
80.000
31
0.0
0
TEXT
8
TEXT
10
800.000
20
1200.000
30
0.0
40
250.000
1
LIVING
50
0.0
7
STANDARD
72
0
73
0
0
TEXT
8
TEXT
10
4700.000
20
4600.000
30
0.0
40
250.000
1
BED 1
50
0.0
7
STANDARD
72
0
73
0
0
TEXT
8
TEXT
10
7600.000
20
4600.000
30
0.0
40
250.000
1
BED 2
50
0.0
7
STANDARD
72
0
73
0
0
TEXT
8
TEXT
10
4900.000
20
1200.000
30
0.0
40
250.000
1
KITCHEN
50
0.0
7
STANDARD
72
0
73
0
0
TEXT
8
TEXT
10
7600.000
20
1200.000
30
0.0
40
250.000
1
BATH
50
0.0
7
STANDARD
72
0
73
0
0
LINE
8
DIMENSIONS
10
0.000
20
300.000
30
0.0
11
10000.000
21
300.000
31
0.0
0
LINE
8
DIMENSIONS
10
0.000
20
-200.000
30
0.0
11
0.000
21
300.000
31
0.0
0
LINE
8
DIMENSIONS
10
10000.000
20
-200.000
30
0.0
11
10000.000
21
300.000
31
0.0
0
LINE
8
DIMENSIONS
10
-80.000
20
220.000
30
0.0
11
80.000
21
380.000
31
0.0
0
LINE
8
DIMENSIONS
10
9920.000
20
220.000
30
0.0
11
10080.000
21
380.000
31
0.0
0
TEXT
8
DIMENSIONS
10
4800.000
20
420.000
30
0.0
40
180.000
1
10000
50
0.0
7
STANDARD
72
0
73
0
0
LINE
8
DIMENSIONS
10
-200.000
20
500.000
30
0.0
11
-200.000
21
7000.000
31
0.0
0
LINE
8
DIMENSIONS
10
-200.000
20
0.000
30
0.0
11
-200.000
21
500.000
31
0.0
0
LINE
8
DIMENSIONS
10
-200.000
20
6500.000
30
0.0
11
-200.000
21
7000.000
31
0.0
0
LINE
8
DIMENSIONS
10
-280.000
20
420.000
30
0.0
11
-120.000
21
580.000
31
0.0
0
LINE
8
DIMENSIONS
10
-280.000
20
6920.000
30
0.0
11
-120.000
21
7080.000
31
0.0
0
TEXT
8
DIMENSIONS
10
-400.000
20
620.000
30
0.0
40
180.000
1
6500
50
0.0
7
STANDARD
72
0
73
0
0
LINE
8
FURNITURE
10
600.000
20
700.000
30
0.0
11
2000.000
21
700.000
31
0.0
0
LINE
8
FURNITURE
10
2000.000
20
700.000
30
0.0
11
2000.000
21
1300.000
31
0.0
0
LINE
8
FURNITURE
10
2000.000
20
1300.000
30
0.0
11
600.000
21
1300.000
31
0.0
0
LINE
8
FURNITURE
10
600.000
20
1300.000
30
0.0
11
600.000
21
700.000
31
0.0
0
LINE
8
FURNITURE
10
1800.000
20
1500.000
30
0.0
11
2700.000
21
1500.000
31
0.0
0
LINE
8
FURNITURE
10
2700.000
20
1500.000
30
0.0
11
2700.000
21
2100.000
31
0.0
0
LINE
8
FURNITURE
10
2700.000
20
2100.000
30
0.0
11
1800.000
21
2100.000
31
0.0
0
LINE
8
FURNITURE
10
1800.000
20
2100.000
30
0.0
11
1800.000
21
1500.000
31
0.0
0
LINE
8
FURNITURE
10
500.000
20
2900.000
30
0.0
11
2300.000
21
2900.000
31
0.0
0
LINE
8
FURNITURE
10
2300.000
20
2900.000
30
0.0
11
2300.000
21
4100.000
31
0.0
0
LINE
8
FURNITURE
10
2300.000
20
4100.000
30
0.0
11
500.000
21
4100.000
31
0.0
0
LINE
8
FURNITURE
10
500.000
20
4100.000
30
0.0
11
500.000
21
2900.000
31
0.0
0
LINE
8
FURNITURE
10
500.000
20
3200.000
30
0.0
11
2300.000
21
3200.000
31
0.0
0
LINE
8
FURNITURE
10
3100.000
20
500.000
30
0.0
11
4350.000
21
500.000
31
0.0
0
LINE
8
FURNITURE
10
4350.000
20
500.000
30
0.0
11
4350.000
21
1000.000
31
0.0
0
LINE
8
FURNITURE
10
4350.000
20
1000.000
30
0.0
11
3100.000
21
1000.000
31
0.0
0
LINE
8
FURNITURE
10
3100.000
20
1000.000
30
0.0
11
3100.000
21
500.000
31
0.0
0
CIRCLE
8
FURNITURE
10
3350.000
20
750.000
30
0.0
40
110.000
0
CIRCLE
8
FURNITURE
10
3850.000
20
750.000
30
0.0
40
110.000
0
LINE
8
FURNITURE
10
4300.000
20
700.000
30
0.0
11
5200.000
21
700.000
31
0.0
0
LINE
8
FURNITURE
10
5200.000
20
700.000
30
0.0
11
5200.000
21
1250.000
31
0.0
0
LINE
8
FURNITURE
10
5200.000
20
1250.000
30
0.0
11
4300.000
21
1250.000
31
0.0
0
LINE
8
FURNITURE
10
4300.000
20
1250.000
30
0.0
11
4300.000
21
700.000
31
0.0
0
CIRCLE
8
FURNITURE
10
4550.000
20
1650.000
30
0.0
40
250.000
0
LINE
8
GRID
10
0.000
20
-500.000
30
0.0
11
0.000
21
7000.000
31
0.0
0
TEXT
8
GRID
10
-80.000
20
-900.000
30
0.0
40
160.000
1
A
50
0.0
7
STANDARD
72
0
73
0
0
LINE
8
GRID
10
4000.000
20
-500.000
30
0.0
11
4000.000
21
7000.000
31
0.0
0
TEXT
8
GRID
10
3920.000
20
-900.000
30
0.0
40
160.000
1
B
50
0.0
7
STANDARD
72
0
73
0
0
LINE
8
GRID
10
7000.000
20
-500.000
30
0.0
11
7000.000
21
7000.000
31
0.0
0
TEXT
8
GRID
10
6920.000
20
-900.000
30
0.0
40
160.000
1
C
50
0.0
7
STANDARD
72
0
73
0
0
LINE
8
GRID
10
10000.000
20
-500.000
30
0.0
11
10000.000
21
7000.000
31
0.0
0
TEXT
8
GRID
10
9920.000
20
-900.000
30
0.0
40
160.000
1
D
50
0.0
7
STANDARD
72
0
73
0
0
LINE
8
GRID
10
-500.000
20
0.000
30
0.0
11
10500.000
21
0.000
31
0.0
0
TEXT
8
GRID
10
-900.000
20
-80.000
30
0.0
40
160.000
1
1
50
0.0
7
STANDARD
72
0
73
0
0
LINE
8
GRID
10
-500.000
20
2500.000
30
0.0
11
10500.000
21
2500.000
31
0.0
0
TEXT
8
GRID
10
-900.000
20
2420.000
30
0.0
40
160.000
1
2
50
0.0
7
STANDARD
72
0
73
0
0
LINE
8
GRID
10
-500.000
20
3300.000
30
0.0
11
10500.000
21
3300.000
31
0.0
0
TEXT
8
GRID
10
-900.000
20
3220.000
30
0.0
40
160.000
1
3
50
0.0
7
STANDARD
72
0
73
0
0
LINE
8
GRID
10
-500.000
20
6500.000
30
0.0
11
10500.000
21
6500.000
31
0.0
0
TEXT
8
GRID
10
-900.000
20
6420.000
30
0.0
40
160.000
1
4
50
0.0
7
STANDARD
72
0
73
0
0
LINE
8
WALLS
10
500.000
20
6450.000
30
0.0
11
600.000
21
6450.000
31
0.0
0
LINE
8
WALLS
10
1000.000
20
6450.000
30
0.0
11
1100.000
21
6450.000
31
0.0
0
LINE
8
WALLS
10
1500.000
20
6450.000
30
0.0
11
1600.000
21
6450.000
31
0.0
0
LINE
8
WALLS
10
2000.000
20
6450.000
30
0.0
11
2100.000
21
6450.000
31
0.0
0
LINE
8
WALLS
10
2500.000
20
6450.000
30
0.0
11
2600.000
21
6450.000
31
0.0
0
LINE
8
WALLS
10
3000.000
20
6450.000
30
0.0
11
3100.000
21
6450.000
31
0.0
0
LINE
8
WALLS
10
3500.000
20
6450.000
30
0.0
11
3600.000
21
6450.000
31
0.0
0
LINE
8
WALLS
10
4000.000
20
6450.000
30
0.0
11
4100.000
21
6450.000
31
0.0
0
LINE
8
WALLS
10
4500.000
20
6450.000
30
0.0
11
4600.000
21
6450.000
31
0.0
0
LINE
8
WALLS
10
5000.000
20
6450.000
30
0.0
11
5100.000
21
6450.000
31
0.0
0
LINE
8
WALLS
10
5500.000
20
6450.000
30
0.0
11
5600.000
21
6450.000
31
0.0
0
LINE
8
WALLS
10
6000.000
20
6450.000
30
0.0
11
6100.000
21
6450.000
31
0.0
0
LINE
8
WALLS
10
6500.000
20
6450.000
30
0.0
11
6600.000
21
6450.000
31
0.0
0
LINE
8
WALLS
10
7000.000
20
6450.000
30
0.0
11
7100.000
21
6450.000
31
0.0
0
LINE
8
WALLS
10
7500.000
20
6450.000
30
0.0
11
7600.000
21
6450.000
31
0.0
0
LINE
8
WALLS
10
8000.000
20
6450.000
30
0.0
11
8100.000
21
6450.000
31
0.0
0
LINE
8
WALLS
10
8500.000
20
6450.000
30
0.0
11
8600.000
21
6450.000
31
0.0
0
LINE
8
WALLS
10
9000.000
20
6450.000
30
0.0
11
9100.000
21
6450.000
31
0.0
0
ENDSEC
0
EOF
